<svg viewBox="0 0 500 275" xmlns="http://www.w3.org/2000/svg">
  <!-- Black background rectangle -->
  <rect x="0" y="0" width="500" height="350" fill="#000000" />
  
  <!-- Integrated circuit pattern - white outline -->
  <rect x="150" y="80" width="200" height="100" rx="5" fill="none" stroke="#FFFFFF" stroke-width="3" />
  <line x1="170" y1="80" x2="170" y2="180" stroke="#FFFFFF" stroke-width="2" />
  <line x1="190" y1="80" x2="190" y2="180" stroke="#FFFFFF" stroke-width="2" />
  <line x1="210" y1="80" x2="210" y2="180" stroke="#FFFFFF" stroke-width="2" />
  <line x1="230" y1="80" x2="230" y2="180" stroke="#FFFFFF" stroke-width="2" />
  <line x1="250" y1="80" x2="250" y2="180" stroke="#FFFFFF" stroke-width="2" />
  <line x1="270" y1="80" x2="270" y2="180" stroke="#FFFFFF" stroke-width="2" />
  <line x1="290" y1="80" x2="290" y2="180" stroke="#FFFFFF" stroke-width="2" />
  <line x1="310" y1="80" x2="310" y2="180" stroke="#FFFFFF" stroke-width="2" />
  <line x1="330" y1="80" x2="330" y2="180" stroke="#FFFFFF" stroke-width="2" />
  
  <!-- Connection points -->
  <circle cx="150" cy="100" r="5" fill="#FFFFFF" />
  <circle cx="150" cy="120" r="5" fill="#FFFFFF" />
  <circle cx="150" cy="140" r="5" fill="#FFFFFF" />
  <circle cx="150" cy="160" r="5" fill="#FFFFFF" />
  <circle cx="350" cy="100" r="5" fill="#FFFFFF" />
  <circle cx="350" cy="120" r="5" fill="#FFFFFF" />
  <circle cx="350" cy="140" r="5" fill="#FFFFFF" />
  <circle cx="350" cy="160" r="5" fill="#FFFFFF" />
  

</svg>
